<svg width="140" height="137" viewBox="0 0 140 137" fill="none" xmlns="http://www.w3.org/2000/svg">
<g opacity="0.4">
<path d="M135.276 132.688C135.276 132.688 131.03 138.37 121.592 136.706C112.154 135.042 110.108 128.25 110.108 128.25C110.108 128.25 105.863 133.932 96.4249 132.268C86.9871 130.604 84.941 123.812 84.941 123.812C84.941 123.812 80.6953 129.495 71.2575 127.83C61.8198 126.166 59.7737 119.375 59.7737 119.375C59.7737 119.375 55.528 125.057 46.0902 123.393C36.6525 121.729 34.6064 114.937 34.6064 114.937C34.6064 114.937 30.3607 120.619 20.9229 118.955L18.7234 131.429L131.976 151.399L135.276 132.688Z" fill="#2196F3"/>
<path d="M34.125 115.506C75.8333 96.2564 72.625 32.0865 72.625 32.0865H79.0417C79.0417 32.0865 85.4583 102.673 50.5196 127.644L34.125 115.506Z" fill="#795548"/>
<path d="M24.5 41.7083C24.4294 35.9012 26.7554 30.0781 30.5124 25.503C34.2758 20.9504 40.0058 17.4084 46.3583 16.3914C52.7076 15.3166 59.1179 16.7956 64.1582 19.6414C69.2306 22.5257 73.273 26.5714 75.8333 31.7304C70.1449 30.8962 65.2875 29.7252 60.7477 29.1349C56.2208 28.5092 52.1975 28.4451 48.4438 29.0547C44.69 29.6642 41.0036 30.9797 37.0799 33.1196C33.14 35.2467 29.1296 38.3877 24.5 41.7083ZM117.542 41.7083L106.348 36.0296C103.056 34.4126 100.085 33.203 97.2521 32.4395C94.416 31.6695 91.6055 31.2492 88.1405 31.2556C84.6658 31.2171 80.7292 31.7625 75.8333 32.0833C77.5305 27.4858 80.88 23.8668 85.3524 21.5568C89.7896 19.25 95.5421 18.5891 100.653 20.0713C105.799 21.4798 110.06 24.6721 112.96 28.4547C115.825 32.2887 117.686 36.7579 117.542 41.7083Z" fill="#388E3C"/>
<path d="M75.8333 32.0833C69.8113 35.3718 65.3613 38.2657 61.8386 41.2014C58.3223 44.1306 55.916 46.9443 53.5483 50.1751C51.203 53.4027 48.9154 57.2238 46.4322 61.7379C43.888 66.2392 41.3566 71.3276 37.3333 77C33.339 71.3052 31.6963 64.9783 31.6738 58.3756C31.722 51.8274 33.6117 44.8075 37.9975 38.8272C42.2774 32.818 49.2106 28.3648 56.3074 27.1681C63.3786 25.9907 70.5685 27.4152 75.8333 32.0833ZM107.917 80.2083C104.189 74.7926 101.638 70.2175 99.2574 65.9312C97.1643 62.0466 95.0198 58.1898 92.8247 54.362C90.7713 50.8649 88.8335 47.6533 86.2412 44.1659C83.6777 40.6142 80.3218 36.9888 75.8333 32.0833C81.7591 29.0771 88.5768 29.1894 94.7689 31.6566C100.967 34.127 106.264 39.0293 109.482 44.7177C112.643 50.2297 114.216 56.5096 114.025 62.8608C113.759 68.9599 112.165 75.0332 107.917 80.2083Z" fill="#4CAF50"/>
<path d="M2.04163 137.958L88.6666 137.962C88.6666 137.962 59.7916 112.295 2.04163 109.087V137.958Z" fill="#FFC107"/>
<path d="M75.8333 32.0834C62.9999 48.125 59.7916 83.4167 59.7916 83.4167L75.8333 32.0834ZM75.8333 32.0834C76.2022 38.0669 76.3402 42.4174 76.0643 46.8C75.8039 51.0117 75.1203 55.1864 74.0238 59.2612C72.8899 63.4638 71.2649 67.5181 69.1824 71.3405C66.9462 75.3574 64.2384 79.3421 59.7916 83.4167C56.2592 78.4727 54.9117 73.4901 54.2989 68.5974C53.7673 63.758 54.1614 58.8616 55.4604 54.1695C56.7722 49.3393 59.0573 44.828 62.1754 40.9127C65.4479 36.9697 69.8273 33.2127 75.8333 32.0834Z" fill="#8BC34A"/>
</g>
</svg>
