<svg width="181" height="131" viewBox="0 0 181 131" fill="none" xmlns="http://www.w3.org/2000/svg">
<g opacity="0.5">
<path d="M176.382 98.9054L0.74601 96.671L1.79855 68.8882C79.1356 69.8721 62.5281 17.3309 131.846 14.7416C134.167 14.6548 135.344 16.7796 133.647 17.9897C127.919 22.0738 119.823 30.0716 119.338 42.865C118.82 56.5387 144.353 70.7018 177.435 71.1227L176.382 98.9054ZM148.731 28.8088C151.357 26.9166 146.878 23.3922 142.648 23.3384C142.648 23.3384 146.104 30.7007 148.731 28.8088ZM131.46 6.09129C129.289 1.5003 118.262 4.55599 114.991 9.75761C114.991 9.75761 133.63 10.6823 131.46 6.09129Z" fill="#00BEEA"/>
<path d="M173.552 128.063C174.333 128.073 175.09 127.849 175.657 127.44C176.225 127.031 176.556 126.471 176.578 125.883L177.635 97.9827C177.653 97.5175 177.163 97.1168 176.547 97.0854C168.847 96.6927 163.055 93.3274 163.178 90.0733C163.275 87.5128 164.595 85.7222 165.85 84.5887C166.527 83.9779 165.889 83.0588 164.845 83.1462C149.23 84.4547 152.587 96.8021 133.733 96.5622C125.482 96.4572 119.113 92.9247 119.243 89.5144C119.34 86.9539 120.659 85.1633 121.915 84.0298C122.591 83.4189 121.954 82.4998 120.909 82.5873C105.295 83.8957 108.652 96.2431 89.7971 96.0032C81.5462 95.8983 75.1779 92.3658 75.3071 88.9554C75.4041 86.3949 76.7235 84.6044 77.9794 83.4708C78.656 82.86 78.0184 81.9409 76.9738 82.0283C61.359 83.3368 64.7164 95.6842 45.8616 95.4443C37.6107 95.3393 31.2424 91.8068 31.3716 88.3965C31.4686 85.836 32.788 84.0454 34.0439 82.9119C34.7205 82.301 34.0829 81.382 33.0383 81.4694C17.4235 82.7778 20.7809 95.1252 1.92612 94.8854L0.722296 123.301C0.640811 124.709 2.10438 125.882 3.97369 125.905L173.552 128.063Z" fill="#76DFFF"/>
</g>
</svg>
